# xmcd CD database file
#
# Track frame offsets:
#	150
#	16537
#	38975
#	55101
#	73095
#	89390
#	100268
#	119124
#	141151
#	161007
#	179858
#	196495
#	207758
#	225561
#	239979
#	258752
#	275426
#
# Disc length: 3960 seconds
#
# Revision: 1
# Processed by: cddbd v1.5.2PL0 Copyright (c) Steve Scherf et al.
# Submitted via: CDex 1.51
#
DISCID=fc0f7611
DTITLE=Various Artist - Dualtone New Music Sampler Volume II
DYEAR=2006
DGENRE=Country
TTITLE0=Ain't No Reason
TTITLE1=The One Who Love You the Most
TTITLE2=You Got Love
TTITLE3=Mother Madam
TTITLE4=All I've Given
TTITLE5=Brand New Key
TTITLE6=Magdalene
TTITLE7=Out in the Parkin' Lot
TTITLE8=Don't Be Afraid of the Neo-Cons
TTITLE9=Half of My Mistakes
TTITLE10=Prove Me Right
TTITLE11=Skyway
TTITLE12=Heart of Saturday Night
TTITLE13=Everybody's Talkin'
TTITLE14=Denomination Blues
TTITLE15=We Will Overcome
TTITLE16=The Holidays Are Here (And We're Still at War)
EXTD=YEAR: 2006
EXTT0=
EXTT1=
EXTT2=
EXTT3=
EXTT4=
EXTT5=
EXTT6=
EXTT7=
EXTT8=
EXTT9=
EXTT10=
EXTT11=
EXTT12=
EXTT13=
EXTT14=
EXTT15=
EXTT16=
PLAYORDER=
